<svg xmlns="http://www.w3.org/2000/svg" viewBox="0 0 128 128">
  <defs>
    <linearGradient id="bg" x1="18" x2="106" y1="12" y2="116" gradientUnits="userSpaceOnUse">
      <stop stop-color="#16376a"/>
      <stop offset=".6" stop-color="#245ca6"/>
      <stop offset="1" stop-color="#ffb06f"/>
    </linearGradient>
    <linearGradient id="shine" x1="28" x2="96" y1="20" y2="88" gradientUnits="userSpaceOnUse">
      <stop stop-color="#fff8ef" stop-opacity=".95"/>
      <stop offset="1" stop-color="#fff8ef" stop-opacity=".1"/>
    </linearGradient>
  </defs>
  <rect width="128" height="128" rx="30" fill="url(#bg)"/>
  <path fill="url(#shine)" d="M36 29c18-7 38-5 53 4 9 6 4 18-7 18H62c-10 0-17 8-17 17v31c0 3-2 5-5 5h-7c-3 0-5-2-5-5V57c0-13 8-23 8-28Z"/>
  <path fill="#fff8ef" d="M92 39c3 0 5 2 5 5v55c0 3-2 5-5 5h-7c-3 0-5-2-5-5V64c0-7-4-13-10-16-2-1-3-3-3-5v-4h25Z"/>
</svg>
